<svg version="1.1" xmlns="http://www.w3.org/2000/svg" xmlns:xlink="http://www.w3.org/1999/xlink" width="331.89246" height="230.86192" viewBox="0,0,331.89246,230.86192"><g transform="translate(-74.28694,-64.56904)"><g data-paper-data="{&quot;isPaintingLayer&quot;:true}" stroke-miterlimit="10" stroke-dasharray="" stroke-dashoffset="0" style="mix-blend-mode: normal"><path d="M154.11242,127.72495c4.0204,-12.98899 10.14161,-25.2314 18.1208,-36.24159c13.40939,-18.1208 25.36912,-26.09395 28.44965,-25.36912c9.86255,10.55476 20.65892,20.19744 32.25502,28.81207c14.03154,7.22416 28.79274,12.93462 44.03354,17.03355c-7.01516,7.58295 -13.09892,15.97892 -18.1208,25.0067z" fill="#f37b20" fill-rule="nonzero" stroke="none" stroke-width="1" stroke-linecap="butt" stroke-linejoin="miter"/><path d="M180.74999,131.17461c7.33771,-19.35543 19.4267,-36.55448 35.15435,-50.0134" fill="none" fill-rule="evenodd" stroke="#f05822" stroke-width="2.5" stroke-linecap="round" stroke-linejoin="round"/><path d="M208.47481,134.07394c5.11852,-14.51476 13.84912,-27.48562 25.36912,-37.69126" fill="none" fill-rule="evenodd" stroke="#f05822" stroke-width="2.5" stroke-linecap="round" stroke-linejoin="round"/><path d="M233.84392,135.5236c4.64738,-11.39315 11.69275,-21.65314 20.65771,-30.08052" fill="none" fill-rule="evenodd" stroke="#f05822" stroke-width="2.5" stroke-linecap="round" stroke-linejoin="round"/><path d="M194.703,79.88605l-5.79865,6.16107" fill="#f37b20" fill-rule="nonzero" stroke="#ffffff" stroke-width="2.5" stroke-linecap="round" stroke-linejoin="round"/><path d="M170.78355,113.22831c3.38617,-7.61557 7.77382,-14.7455 13.04697,-21.20133" fill="#f37b20" fill-rule="nonzero" stroke="#ffffff" stroke-width="2.5" stroke-linecap="round" stroke-linejoin="round"/><path d="M209.92447,97.28201c1.16456,-1.53785 2.43544,-2.99114 3.80537,-4.34899" fill="#f37b20" fill-rule="nonzero" stroke="#ffffff" stroke-width="2.5" stroke-linecap="round" stroke-linejoin="round"/><path d="M197.05871,115.40281c2.46926,-4.53866 5.25503,-8.89852 8.33557,-13.04697" fill="#f37b20" fill-rule="nonzero" stroke="#ffffff" stroke-width="2.5" stroke-linecap="round" stroke-linejoin="round"/><path d="M231.1258,106.52362l1.99329,-2.3557" fill="#f37b20" fill-rule="nonzero" stroke="#ffffff" stroke-width="2.5" stroke-linecap="round" stroke-linejoin="round"/><path d="M223.51507,117.21489c1.3953,-2.41007 2.9706,-4.71262 4.71141,-6.8859" fill="#f37b20" fill-rule="nonzero" stroke="#ffffff" stroke-width="2.5" stroke-linecap="round" stroke-linejoin="round"/><path d="M254.86405,113.95315l-1.08725,1.44966" fill="#f37b20" fill-rule="nonzero" stroke="#ffffff" stroke-width="2.5" stroke-linecap="round" stroke-linejoin="round"/><path d="M251.4211,118.12093l-3.44295,5.61745" fill="#f37b20" fill-rule="nonzero" stroke="#ffffff" stroke-width="2.5" stroke-linecap="round" stroke-linejoin="round"/><path d="M154.11242,127.72495c4.0204,-12.98899 10.14161,-25.2314 18.1208,-36.24159c13.40939,-18.1208 25.36912,-26.09395 28.44965,-25.36912c9.86255,10.55476 20.65892,20.19744 32.25502,28.81207c14.03154,7.22416 28.79274,12.93462 44.03354,17.03355c-7.01516,7.58295 -13.09892,15.97892 -18.1208,25.0067" fill="none" fill-rule="evenodd" stroke="#dd3627" stroke-width="3" stroke-linecap="round" stroke-linejoin="round"/><path d="M404.54183,250.94637c0.22832,3.25812 0.22832,6.52711 0,9.78523c-20.35569,3.3753 -41.23206,-1.16336 -58.34896,-12.68456c-18.1208,-13.77181 -23.73824,-29.71811 -36.24159,-29.71811c-17.39596,0 -37.69126,40.22817 -120.14088,40.22817c-56.71809,0 -106.36908,-38.05367 -108.72478,-65.77849c19.35663,18.44335 41.88683,33.23837 66.50332,43.67112c36.8577,10.67436 76.20037,8.95651 111.98652,-4.89262c27.72482,-11.77852 32.25502,-19.93288 45.84562,-23.19462c13.5906,-3.26174 21.56375,4.71141 36.24159,19.75167c16.95744,15.88711 39.67971,24.1369 62.87916,22.8322z" fill="#e24217" fill-rule="nonzero" stroke="#e24217" stroke-width="0.5" stroke-linecap="round" stroke-linejoin="round"/><path d="M175.13254,134.97327c-33.92576,5.97261 -65.39554,21.64469 -90.60398,45.12078c11.59731,-25.91274 55.99326,-55.44964 105.10062,-55.44964c82.44962,0 102.02008,40.22817 120.14088,40.22817c11.95973,0 18.1208,-15.9463 36.24159,-29.71811c17.15315,-11.43664 37.99569,-15.96805 58.34896,-12.68456c0.13409,2.59611 0.13409,5.19584 0,7.79194c-13.61234,-0.59678 -27.1969,1.68765 -39.86575,6.70469c-14.14268,6.42926 -26.56267,16.11664 -36.24159,28.26844c-8.2208,9.29234 -21.98415,11.21436 -32.43623,4.5302c-18.302,-11.77852 -59.43621,-46.02682 -120.6845,-34.79193z" fill="#f07126" fill-rule="nonzero" stroke="none" stroke-width="1" stroke-linecap="butt" stroke-linejoin="miter"/><path d="M387.87069,217.32387c8.13503,9.85416 13.34899,21.82141 15.04026,34.52793c-22.76697,0.96459 -44.96494,-7.32821 -61.61071,-23.01861c-14.49664,-15.16305 -22.28858,-23.38399 -36.24159,-20.09562c-13.95301,3.28837 -18.66442,11.69199 -45.84562,23.56668c-35.78616,13.96219 -75.12882,15.69406 -111.98652,4.93257c-24.6165,-10.51793 -47.14669,-25.43374 -66.50332,-44.02767c0,-0.73075 0,-2.00956 0,-2.00956c0.13772,-4.31507 1.18872,-8.54977 3.08054,-12.42274c25.20844,-23.66777 56.67823,-39.46779 90.60398,-45.48916c61.24829,-10.59587 102.56371,23.93205 120.6845,35.07598c10.45208,6.73873 24.21542,4.80103 32.43623,-4.56719c9.67892,-12.25102 22.09892,-22.01748 36.24159,-28.49923c12.66885,-5.058 26.25341,-7.36108 39.86575,-6.75943c-1.55718,13.41534 -6.90402,26.09628 -15.40268,36.53748c-12.84644,16.3079 -32.25985,25.95988 -52.91273,26.30699c20.45355,0.41652 39.68213,9.90897 52.55031,25.94161z" fill="#f05822" fill-rule="nonzero" stroke="none" stroke-width="1" stroke-linecap="butt" stroke-linejoin="miter"/><path d="M183.46811,257.83227c7.79194,13.77181 20.29529,18.66442 20.29529,20.65771c-5.6561,11.3255 -18.22711,17.42617 -30.62415,14.85905c-8.02993,-11.67583 -13.58093,-24.87381 -16.30872,-38.7785z" fill="#f37b20" fill-rule="nonzero" stroke="none" stroke-width="1" stroke-linecap="butt" stroke-linejoin="miter"/><path d="M276.79021,236.44973c-1.08725,24.10066 -9.0604,39.32213 -11.95973,38.05367c-10.14765,-4.34899 -16.12751,-24.82549 -16.12751,-24.82549z" fill="#f37b20" fill-rule="nonzero" stroke="none" stroke-width="1" stroke-linecap="butt" stroke-linejoin="miter"/><path d="M401.82371,242.24838c-13.19556,-3.49007 -25.5322,-9.65838 -36.24159,-18.1208" fill="none" fill-rule="evenodd" stroke="#dd3627" stroke-width="3" stroke-linecap="round" stroke-linejoin="round"/><path d="M365.58211,159.43634c10.17302,-9.75503 22.63529,-16.79677 36.24159,-20.4765" fill="none" fill-rule="evenodd" stroke="#dd3627" stroke-width="3" stroke-linecap="round" stroke-linejoin="round"/><path d="M121.67619,180.27526c0,-12.30964 9.97894,-22.28858 22.28858,-22.28858c12.30964,0 22.28858,9.97894 22.28858,22.28858c0,12.30964 -9.97894,22.28858 -22.28858,22.28858c-12.30964,0 -22.28858,-9.97894 -22.28858,-22.28858z" fill="#ffffff" fill-rule="nonzero" stroke="none" stroke-width="1" stroke-linecap="butt" stroke-linejoin="miter"/><path d="M122.48827,180.27526c0,-10.00781 8.11298,-18.1208 18.1208,-18.1208c10.00781,0 18.1208,8.11298 18.1208,18.1208c0,10.00781 -8.11298,18.1208 -18.1208,18.1208c-10.00781,0 -18.1208,-8.11298 -18.1208,-18.1208z" fill="#b71b13" fill-rule="nonzero" stroke="#b71b13" stroke-width="2.5" stroke-linecap="round" stroke-linejoin="round"/><path d="M182.92448,149.28869c8.17973,12.14093 11.89449,26.74267 10.51006,41.31542c1.1404,15.01006 -2.54174,29.99354 -10.51006,42.76508" fill="none" fill-rule="evenodd" stroke="#fdbb38" stroke-width="2.5" stroke-linecap="round" stroke-linejoin="round"/><path d="M212.46138,149.28869c0,0 10.14765,2.3557 11.23489,11.4161c1.09087,6.05597 -2.13825,12.06483 -7.79194,14.49664c6.12483,1.44362 10.55597,6.76268 10.87248,13.04697c-0.36846,6.37973 -4.72953,11.83046 -10.87248,13.5906c6.16349,2.1757 9.94953,8.38389 9.0604,14.85905c-0.86738,6.32295 -6.12725,11.12617 -12.50335,11.4161" fill="none" fill-rule="evenodd" stroke="#fdbb38" stroke-width="2.5" stroke-linecap="round" stroke-linejoin="round"/><path d="M244.17278,162.15446c4.60872,2.48738 7.51892,7.26644 7.61073,12.50335c0.25852,5.65731 -2.68309,10.97999 -7.61073,13.77181c5.07261,2.45839 8.1,7.79436 7.61073,13.40939c-0.02658,5.83248 -2.85946,11.2953 -7.61073,14.67785" fill="none" fill-rule="evenodd" stroke="#dd3627" stroke-width="2.5" stroke-linecap="round" stroke-linejoin="round"/><path d="M266.28015,162.8793c4.28496,2.38711 6.97771,6.87382 7.06711,11.77852c0.25732,5.32631 -2.46564,10.35302 -7.06711,13.04697c4.71503,2.30376 7.52496,7.2749 7.06711,12.50335c0.04711,5.47248 -2.59369,10.61879 -7.06711,13.77181" fill="none" fill-rule="evenodd" stroke="#fdbb38" stroke-width="2.5" stroke-linecap="round" stroke-linejoin="round"/><path d="M291.10564,178.10076c6.23839,6.40268 6.23839,16.61073 0,23.01341" fill="none" fill-rule="evenodd" stroke="#ffffff" stroke-width="2.5" stroke-linecap="round" stroke-linejoin="round"/><path d="M187.63589,292.26178c-8.7451,-10.8302 -15.55006,-23.09194 -20.11408,-36.24159" fill="none" fill-rule="evenodd" stroke="#f05822" stroke-width="2.5" stroke-linecap="round" stroke-linejoin="round"/><path d="M197.05871,287.55037c-9.53275,-8.27154 -17.03596,-18.62576 -21.92616,-30.26173" fill="none" fill-rule="evenodd" stroke="#f05822" stroke-width="2.5" stroke-linecap="round" stroke-linejoin="round"/><path d="M264.28686,274.5034c-1.6357,-10.05946 -2.18174,-20.2663 -1.63087,-30.44294" fill="none" fill-rule="evenodd" stroke="#f05822" stroke-width="2.5" stroke-linecap="round" stroke-linejoin="round"/><path d="M236.38083,142.4028l6.16107,2.1745" fill="none" fill-rule="evenodd" stroke="#ffffff" stroke-width="2.5" stroke-linecap="round" stroke-linejoin="round"/><path d="M206.84394,136.96656c7.38724,0.5702 14.71892,1.72148 21.92616,3.44295" fill="none" fill-rule="evenodd" stroke="#ffffff" stroke-width="2.5" stroke-linecap="round" stroke-linejoin="round"/><path d="M276.79021,236.44973c-1.08725,24.10066 -9.0604,39.32213 -11.95973,38.05367c-10.14765,-4.34899 -16.12751,-24.82549 -16.12751,-24.82549" fill="none" fill-rule="evenodd" stroke="#dd3627" stroke-width="3" stroke-linecap="round" stroke-linejoin="round"/><path d="M183.46811,257.83227c7.79194,13.77181 20.29529,18.66442 20.29529,20.65771c-5.6561,11.3255 -18.22711,17.42617 -30.62415,14.85905c-8.02993,-11.67583 -13.58093,-24.87381 -16.30872,-38.7785" fill="none" fill-rule="evenodd" stroke="#dd3627" stroke-width="3" stroke-linecap="round" stroke-linejoin="round"/><path d="M404.17941,250.76516c0.22832,3.25812 0.22832,6.52711 0,9.78523c-20.35569,3.3753 -41.23206,-1.16336 -58.34896,-12.68456c-18.1208,-13.77181 -23.73824,-29.71811 -36.24159,-29.71811c-17.39596,0 -37.69126,40.22817 -120.14088,40.22817c-56.71809,0 -106.36908,-38.05367 -108.72478,-65.77849c0,-0.72483 0,-1.99329 0,-1.99329c0,-27.90603 51.46306,-67.77178 108.72478,-67.77178c82.44962,0 102.02008,40.22817 120.14088,40.22817c11.95973,0 18.1208,-15.9463 36.24159,-29.71811c17.15315,-11.43664 37.99569,-15.96805 58.34896,-12.68456c-0.37691,16.02241 -5.97624,31.48428 -15.9463,44.03354c-12.84644,16.17583 -32.25985,25.74965 -52.91273,26.09395c20.61059,0.35154 39.99864,9.84563 52.91273,25.91274c8.43221,9.61852 13.96147,21.43086 15.9463,34.0671z" fill="none" fill-rule="evenodd" stroke="#b71b13" stroke-width="4" stroke-linecap="round" stroke-linejoin="round"/><path d="M75.28695,189.69807c0,-11.00863 5.40863,-19.93288 12.08053,-19.93288c6.6719,0 12.08053,8.92425 12.08053,19.93288c0,11.00863 -5.40863,19.93288 -12.08053,19.93288c-6.6719,0 -12.08053,-8.92425 -12.08053,-19.93288z" fill="#b71b13" fill-rule="nonzero" stroke="#b71b13" stroke-width="2" stroke-linecap="round" stroke-linejoin="round"/></g></g></svg>